<svg xmlns="http://www.w3.org/2000/svg" xmlns:xlink="http://www.w3.org/1999/xlink" width="74" height="11" viewBox="0 0 74 11">
    <defs>
        <path id="a" d="M0 0h12v11H0z"/>
        <path id="c" d="M0 0h12v11H0z"/>
        <path id="e" d="M0 0h12v11H0z"/>
        <path id="g" d="M0 0h12v11H0z"/>
        <path id="i" d="M0 0h12v11H0z"/>
    </defs>
    <g fill="none" fill-rule="evenodd">
        <g>
            <mask id="b" fill="#fff">
                <use xlink:href="#a"/>
            </mask>
            <path fill="#EAD637" d="M6.444.265l1.47 2.86c.073.14.212.237.374.26l3.287.458c.407.056.569.536.275.811L9.47 6.88a.464.464 0 0 0-.142.42l.561 3.143c.07.388-.356.685-.72.501L6.23 9.461a.514.514 0 0 0-.46 0l-2.94 1.483c-.365.184-.79-.113-.72-.501L2.672 7.3a.464.464 0 0 0-.143-.421L.15 4.654C-.144 4.38.018 3.9.425 3.843l3.287-.459a.495.495 0 0 0 .373-.26L5.555.265a.505.505 0 0 1 .89 0" mask="url(#b)"/>
        </g>
        <g transform="translate(15)">
            <mask id="d" fill="#fff">
                <use xlink:href="#c"/>
            </mask>
            <path fill="#EAD637" d="M6.444.265l1.47 2.86c.073.14.212.237.374.26l3.287.458c.407.056.569.536.275.811L9.47 6.88a.464.464 0 0 0-.142.42l.561 3.143c.07.388-.356.685-.72.501L6.23 9.461a.514.514 0 0 0-.46 0l-2.94 1.483c-.365.184-.79-.113-.72-.501L2.672 7.3a.464.464 0 0 0-.143-.421L.15 4.654C-.144 4.38.018 3.9.425 3.843l3.287-.459a.495.495 0 0 0 .373-.26L5.555.265a.505.505 0 0 1 .89 0" mask="url(#d)"/>
        </g>
        <g transform="translate(31)">
            <mask id="f" fill="#fff">
                <use xlink:href="#e"/>
            </mask>
            <path fill="#EAD637" d="M6.444.265l1.47 2.86c.073.14.212.237.374.26l3.287.458c.407.056.569.536.275.811L9.47 6.88a.464.464 0 0 0-.142.42l.561 3.143c.07.388-.356.685-.72.501L6.23 9.461a.514.514 0 0 0-.46 0l-2.94 1.483c-.365.184-.79-.113-.72-.501L2.672 7.3a.464.464 0 0 0-.143-.421L.15 4.654C-.144 4.38.018 3.9.425 3.843l3.287-.459a.495.495 0 0 0 .373-.26L5.555.265a.505.505 0 0 1 .89 0" mask="url(#f)"/>
        </g>
        <g transform="translate(46)">
            <mask id="h" fill="#fff">
                <use xlink:href="#g"/>
            </mask>
            <path fill="#EAD637" d="M6.444.265l1.47 2.86c.073.14.212.237.374.26l3.287.458c.407.056.569.536.275.811L9.47 6.88a.464.464 0 0 0-.142.42l.561 3.143c.07.388-.356.685-.72.501L6.23 9.461a.514.514 0 0 0-.46 0l-2.94 1.483c-.365.184-.79-.113-.72-.501L2.672 7.3a.464.464 0 0 0-.143-.421L.15 4.654C-.144 4.38.018 3.9.425 3.843l3.287-.459a.495.495 0 0 0 .373-.26L5.555.265a.505.505 0 0 1 .89 0" mask="url(#h)"/>
        </g>
        <g transform="translate(62)">
            <mask id="j" fill="#fff">
                <use xlink:href="#i"/>
            </mask>
            <path fill="#EAD637" d="M6.444.265l1.47 2.86c.073.14.212.237.374.26l3.287.458c.407.056.569.536.275.811L9.47 6.88a.464.464 0 0 0-.142.42l.561 3.143c.07.388-.356.685-.72.501L6.23 9.461a.514.514 0 0 0-.46 0l-2.94 1.483c-.365.184-.79-.113-.72-.501L2.672 7.3a.464.464 0 0 0-.143-.421L.15 4.654C-.144 4.38.018 3.9.425 3.843l3.287-.459a.495.495 0 0 0 .373-.26L5.555.265a.505.505 0 0 1 .89 0" mask="url(#j)"/>
        </g>
    </g>
</svg>
