<?xml version="1.0" encoding="UTF-8"?>
<svg width="100px" height="100px" viewBox="0 0 100 100" version="1.1" xmlns="http://www.w3.org/2000/svg" xmlns:xlink="http://www.w3.org/1999/xlink">
    <!-- Generator: Sketch 60 (88103) - https://sketch.com -->
    <title>Object / Communication</title>
    <desc>Created with Sketch.</desc>
    <defs>
        <path d="M95,45.948872 C94.9202446,61.1516331 87.943941,71.6746355 77.0211338,75.4851246 C77.0211338,75.4851246 76.8812057,75.4794853 76.6410589,75.4719663 C76.7696415,75.5189603 76.8944422,75.5283591 77.0211338,75.4851246 C77.0211338,75.4851246 78.2975047,84.891452 77.6375737,84.9985985 C76.9757517,85.1057449 66.4622372,79.0397539 65.4600497,77.0152506 C65.4808498,76.8404328 65.499759,76.6787733 65.5186682,76.5058352 C65.3938675,76.6543364 65.3655037,76.8235149 65.4600497,77.0152506 C61.298135,76.799078 56.8336732,75.8441591 52.1612102,74.0847022 C51.3178599,73.7670224 50.53691,73.4249058 49.7862148,73.0715106 C59.339142,66.6352067 58.0854622,56.8660852 58.0854622,56.8660852 C67.0427496,52.8151988 63.3081829,50.83393 63.3081829,50.83393 C52.7209225,44.9822319 62.6463609,43.1682619 53.9708205,29.4328433 C51.3916058,25.3518808 47.7894034,22.9213489 44,21.5115277 C49.5613561,15.4157468 57.7138199,14.0218736 63.9173814,14 L64.2164732,14 C69.1270356,14.0172638 72.743873,14.8778487 72.743873,14.8778487 C72.743873,14.8778487 94.2663231,18.2802173 94.9810908,44.2679225 C94.9917226,44.6549598 94.9980105,45.0391406 95,45.4204336 L95,45.948872" id="path-1"></path>
        <linearGradient x1="19.8125%" y1="22.2935493%" x2="74.0078125%" y2="67.9599251%" id="linearGradient-3">
            <stop stop-color="#FDAA02" offset="0%"></stop>
            <stop stop-color="#FF764C" offset="100%"></stop>
        </linearGradient>
        <path d="M27.0196042,34.9705786 C35.9552821,30.9655474 32.2297251,29.0039374 32.2297251,29.0039374 C21.6680065,23.2176528 31.5694997,21.4215247 22.9130028,7.83528382 C20.3418968,3.79864377 16.7464984,1.39450946 12.9681233,0 C12.1701939,0.866455212 11.4213097,1.81658099 10.7459936,2.88198622 C1.51038468,17.4481024 12.1154895,19.3464946 0.821864003,25.5660068 C0.821864003,25.5660068 -3.16212414,27.6745051 6.41302918,31.941704 C6.41302918,31.941704 4.81905665,44.4625396 18.7403788,51 C28.2702596,44.6335995 27.0196042,34.9705786 27.0196042,34.9705786" id="path-4"></path>
        <path d="M32.7765517,33.8848714 C23.2821029,29.5934267 27.2325119,27.4729481 27.2325119,27.4729481 C38.4309487,21.2180974 27.9133589,19.3089188 37.0711251,4.66003966 C37.7426199,3.58858093 38.485192,2.63305665 39.2763961,1.76167834 C30.4066804,-1.55741285 20.5007306,0.832332807 20.5007306,0.832332807 C20.5007306,0.832332807 0.623364985,4.03735946 0.0154658751,28.187254 C-0.362366802,43.1596276 6.21042542,53.5133222 16.6849947,57.1559079 L16.6719015,57.1559079 C16.6719015,57.1559079 15.5103466,65.8996096 16.1219866,65.9987148 C16.7317562,66.0978201 26.433826,60.4376009 27.3578326,58.554601 C27.3578326,58.554601 27.3578326,58.5527311 27.3578326,58.5527311 C31.2034959,58.3433011 35.3259871,57.4513538 39.6392651,55.8058325 C41.7323085,55.0073807 43.4961511,54.0705555 45,53.0514543 C31.1960141,46.4768489 32.7765517,33.8848714 32.7765517,33.8848714" id="path-6"></path>
        <path d="M23.8014556,12.3057459 C24.8089049,12.3057459 25.6323368,13.1379371 25.6323368,14.1538101 C25.6323368,15.1696831 24.8089049,16 23.8014556,16 L19.4054819,16 C18.3980326,16 17.572742,15.1696831 17.572742,14.1538101 C17.572742,13.1379371 18.3980326,12.3057459 19.4054819,12.3057459 L23.8014556,12.3057459 Z M24.16726,6.08061852 C25.1747094,6.08061852 26,6.9128097 26,7.92868272 C26,8.94455573 25.1747094,9.77487261 24.16726,9.77487261 L11.9570483,9.77487261 C10.9495989,9.77487261 10.1243083,8.94455573 10.1243083,7.92868272 C10.1243083,6.9128097 10.9495989,6.08061852 11.9570483,6.08061852 L24.16726,6.08061852 Z M14.0429517,1.77635684e-15 C15.0504011,1.77635684e-15 15.8738329,0.832191179 15.8738329,1.84806419 C15.8738329,2.86393721 15.0504011,3.69425409 14.0429517,3.69425409 L1.8308812,3.69425409 C0.823431848,3.69425409 -1.77635684e-14,2.86393721 -1.77635684e-14,1.84806419 C-1.77635684e-14,0.832191179 0.823431848,1.77635684e-15 1.8308812,1.77635684e-15 L14.0429517,1.77635684e-15 Z M23.3131586,1.77635684e-15 C24.320608,1.77635684e-15 25.1440398,0.832191179 25.1440398,1.84806419 C25.1440398,2.86393721 24.320608,3.69425409 23.3131586,3.69425409 L19.8930354,3.69425409 C18.885586,3.69425409 18.0621542,2.86393721 18.0621542,1.84806419 C18.0621542,0.832191179 18.885586,1.77635684e-15 19.8930354,1.77635684e-15 L23.3131586,1.77635684e-15 Z" id="path-8"></path>
        <path d="M5.18845144,19 C6.18425197,19 7,19.8985801 7,20.9979716 C7,22.0973631 6.18425197,23 5.18845144,23 L1.80971129,23 C0.813910761,23 0,22.0973631 0,20.9979716 C0,19.8985801 0.813910761,19 1.80971129,19 L5.18845144,19 Z M14.1545667,12 C15.1700234,12 16,12.8985801 16,13.9979716 C16,15.0973631 15.1700234,16 14.1545667,16 L1.84543326,16 C0.829976581,16 0,15.0973631 0,13.9979716 C0,12.8985801 0.829976581,12 1.84543326,12 L14.1545667,12 Z M6.18081181,6 C7.18081181,6 8,6.89903602 8,7.99898529 C8,9.09893455 7.18081181,10 6.18081181,10 L1.81734317,10 C0.817343173,10 0,9.09893455 0,7.99898529 C0,6.89903602 0.817343173,6 1.81734317,6 L6.18081181,6 Z M14.1545667,0 C15.1700234,0 16,0.898580122 16,1.9979716 C16,3.09736308 15.1700234,4 14.1545667,4 L1.84543326,4 C0.829976581,4 0,3.09736308 0,1.9979716 C0,0.898580122 0.829976581,0 1.84543326,0 L14.1545667,0 Z" id="path-10"></path>
    </defs>
    <g id="Object-/-Communication" stroke="none" stroke-width="1" fill="none" fill-rule="evenodd">
        <path d="M94.9803992,44.2687017 C94.2656146,18.2814935 72.7445492,14.8773102 72.7445492,14.8773102 C72.7445492,14.8773102 54.0996406,10.4430372 44,21.512742 C47.7876016,22.9225363 51.3917797,25.3530217 53.9691641,29.4320265 C62.6467996,43.1671824 52.7192367,44.9829975 63.3067461,50.832704 C63.3067461,50.832704 67.0432917,52.8158146 58.0857935,56.8647439 C58.0857935,56.8647439 59.3395029,66.6336785 49.7863509,73.0698594 C50.5351728,73.4251276 51.3180321,73.7653579 52.1595112,74.0830316 C56.8320842,75.8443346 61.296651,76.7992353 65.4605545,77.0154037 C65.3641153,76.821792 65.3924798,76.6544964 65.5172835,76.5041183 C65.4983738,76.6770531 65.4794642,76.8387095 65.4605545,77.0154037 C66.4608747,79.0379886 76.9765275,85.1057433 77.638365,84.9985989 C78.2983116,84.8895748 77.0200197,75.4834272 77.0200197,75.4834272 C76.895216,75.5285407 76.7685214,75.519142 76.6418268,75.4721489 C76.8800883,75.4796678 77.0200197,75.4834272 77.0200197,75.4834272 C88.3412233,71.5360032 95.4228848,60.3741918 94.9803992,44.2687017" id="Fill-1" fill="#FBAA19"></path>
        <mask id="mask-2" fill="white">
            <use xlink:href="#path-1"></use>
        </mask>
        <g id="Clip-5"></g>
        <g id="Gradient-/-01-Sunrise" mask="url(#mask-2)" fill="url(#linearGradient-3)" fill-rule="nonzero">
            <g transform="translate(6.000000, 11.000000)" id="Rectangle-2">
                <rect x="0" y="0" width="88" height="79"></rect>
            </g>
        </g>
        <g id="center" transform="translate(31.000000, 22.000000)">
            <mask id="mask-5" fill="white">
                <use xlink:href="#path-4"></use>
            </mask>
            <use id="Mask" fill="#FFFFFF" xlink:href="#path-4"></use>
            <g id="Colour-/-01-White" mask="url(#mask-5)" fill="#FFFFFF" fill-rule="nonzero">
                <g transform="translate(-25.000000, -11.000000)" id="Rectangle-2">
                    <rect x="0" y="0" width="88" height="79"></rect>
                </g>
            </g>
        </g>
        <g id="left" transform="translate(5.000000, 20.000000)">
            <mask id="mask-7" fill="white">
                <use xlink:href="#path-6"></use>
            </mask>
            <use id="Mask" fill="#F37650" xlink:href="#path-6"></use>
            <g id="Colour-/-18-Salmon" mask="url(#mask-7)" fill="#ED4B54" fill-rule="nonzero">
                <g transform="translate(-4.000000, -8.000000)" id="Rectangle-2">
                    <rect x="0" y="0" width="51" height="79"></rect>
                </g>
            </g>
        </g>
        <g id="content-right" transform="translate(63.000000, 35.000000)">
            <mask id="mask-9" fill="white">
                <use xlink:href="#path-8"></use>
            </mask>
            <use id="Mask" fill="#C56546" xlink:href="#path-8"></use>
            <g id="Colour-/-15-Creamy-Red" mask="url(#mask-9)" fill="#B25147" fill-rule="nonzero">
                <g transform="translate(-57.000000, -24.000000)" id="Rectangle-2">
                    <rect x="0" y="0" width="88" height="79"></rect>
                </g>
            </g>
        </g>
        <g id="content-left" transform="translate(13.000000, 39.000000)">
            <mask id="mask-11" fill="white">
                <use xlink:href="#path-10"></use>
            </mask>
            <use id="Mask" fill="#B35248" xlink:href="#path-10"></use>
            <g id="Colour-/-14-Crimson" mask="url(#mask-11)" fill="#9E2E2C" fill-rule="nonzero">
                <g transform="translate(-7.000000, -28.000000)" id="Rectangle-2">
                    <rect x="0" y="0" width="88" height="79"></rect>
                </g>
            </g>
        </g>
    </g>
</svg>