<?xml version="1.0" encoding="utf-8"?>
<!-- Generator: Adobe Illustrator 21.1.0, SVG Export Plug-In . SVG Version: 6.00 Build 0)  -->
<svg version="1.1" id="Layer_1" xmlns="http://www.w3.org/2000/svg" xmlns:xlink="http://www.w3.org/1999/xlink" x="0px" y="0px"
	 viewBox="0 0 841.9 595.3" style="enable-background:new 0 0 841.9 595.3;" xml:space="preserve">
<style type="text/css">
	.st0{fill:#AA1F24;}
	.st1{fill:#1F2B51;}
</style>
<g id="XMLID_84_">
	<path id="XMLID_20_" class="st0" d="M151.1,203.1L140,183.8c-1.7-3-6.1-3-7.8,0l-24.4,41.7c-1.6,2.8-1.6,6.2,0,9l12.3,21
		C126.6,235.9,137.3,218.1,151.1,203.1z"/>
	<g id="XMLID_97_">
		<path id="XMLID_2_" class="st0" d="M366.7,360c-3.7,1.7-7.9,2.5-12.6,2.5c-4.3,0-8.4-0.7-12-2.1c-3.7-1.4-6.9-3.5-9.6-6.1
			c-2.7-2.6-4.8-5.8-6.4-9.4c-1.5-3.7-2.3-7.7-2.3-12.1c0-4.5,0.8-8.6,2.3-12.2c1.6-3.7,3.7-6.8,6.5-9.3c2.8-2.6,6-4.5,9.7-5.9
			c3.7-1.4,7.7-2.1,12-2.1c4,0,7.9,0.7,11.7,2.1c3.8,1.4,7,3.5,9.3,6.2l-9.2,9.2c-1.3-1.7-2.9-3-5-3.9c-2.1-0.8-4.2-1.3-6.4-1.3
			c-2.4,0-4.6,0.4-6.6,1.3s-3.7,2.1-5.1,3.6c-1.4,1.5-2.5,3.4-3.3,5.4s-1.2,4.4-1.2,6.9c0,2.5,0.4,4.9,1.2,7s1.9,3.9,3.3,5.4
			c1.4,1.5,3.1,2.7,5,3.5s4.1,1.3,6.4,1.3c2.7,0,5.1-0.5,7.1-1.6c2-1.1,3.6-2.4,4.8-4.1l9.5,8.9C373.4,356.1,370.3,358.3,366.7,360z
			"/>
		<path id="XMLID_4_" class="st0" d="M421.1,361l-12.2-22.3h-4.6V361H391v-56.3h21.5c2.7,0,5.3,0.3,7.9,0.8s4.9,1.5,6.9,2.8
			c2,1.3,3.7,3.1,4.9,5.2c1.2,2.2,1.8,4.9,1.8,8.1c0,3.8-1,7-3.1,9.6s-4.9,4.4-8.6,5.6L437,361H421.1z M420.6,322
			c0-1.3-0.3-2.4-0.8-3.2c-0.6-0.8-1.3-1.5-2.2-1.9c-0.9-0.5-1.9-0.8-3-0.9s-2.1-0.2-3.2-0.2h-7.3v13.1h6.5c1.1,0,2.3-0.1,3.4-0.3
			c1.2-0.2,2.2-0.5,3.2-1c1-0.5,1.7-1.2,2.4-2.1C420.2,324.6,420.6,323.4,420.6,322z"/>
		<path id="XMLID_7_" class="st0" d="M452.9,361v-56.3h13.7V361H452.9z"/>
		<path id="XMLID_9_" class="st0" d="M538.7,361l0.3-39.8h-0.2L524.1,361h-9.5l-14.2-39.8h-0.2l0.3,39.8h-12.8v-56.3H507l12.8,36.1
			h0.3l12.3-36.1H552V361H538.7z"/>
		<path id="XMLID_11_" class="st0" d="M602.6,319.4c-1.2-1.5-2.7-2.7-4.6-3.5c-1.9-0.9-3.7-1.3-5.4-1.3c-0.9,0-1.8,0.1-2.7,0.2
			c-0.9,0.2-1.8,0.5-2.5,0.9c-0.7,0.5-1.4,1-1.9,1.7c-0.5,0.7-0.8,1.6-0.8,2.7c0,1,0.2,1.7,0.6,2.4c0.4,0.6,1,1.2,1.7,1.7
			c0.8,0.5,1.7,0.9,2.7,1.3s2.3,0.8,3.6,1.2c1.9,0.6,3.9,1.3,6,2.1c2.1,0.8,3.9,1.8,5.6,3.1c1.7,1.3,3.1,2.8,4.2,4.7
			c1.1,1.9,1.7,4.2,1.7,7c0,3.2-0.6,6-1.8,8.4c-1.2,2.4-2.8,4.3-4.8,5.8c-2,1.5-4.3,2.7-6.9,3.4c-2.6,0.7-5.3,1.1-8,1.1
			c-4,0-7.9-0.7-11.7-2.1c-3.8-1.4-6.9-3.4-9.4-6l8.9-9.1c1.4,1.7,3.2,3.1,5.4,4.3c2.3,1.1,4.5,1.7,6.7,1.7c1,0,2-0.1,2.9-0.3
			c1-0.2,1.8-0.6,2.5-1c0.7-0.5,1.3-1.1,1.7-1.9c0.4-0.8,0.6-1.7,0.6-2.9c0-1.1-0.3-2-0.8-2.7s-1.3-1.4-2.3-2
			c-1-0.6-2.2-1.2-3.7-1.7c-1.5-0.5-3.1-1-5-1.6c-1.8-0.6-3.6-1.3-5.3-2.1s-3.3-1.8-4.6-3.1c-1.4-1.2-2.4-2.8-3.3-4.5
			c-0.8-1.8-1.2-3.9-1.2-6.5c0-3.1,0.6-5.8,1.9-8c1.3-2.2,2.9-4.1,5-5.5s4.4-2.5,7-3.1c2.6-0.7,5.2-1,7.9-1c3.2,0,6.4,0.6,9.7,1.7
			c3.3,1.2,6.2,2.9,8.7,5.2L602.6,319.4z"/>
		<path id="XMLID_13_" class="st0" d="M687.1,332.6c0,4.4-0.8,8.5-2.3,12.2c-1.5,3.7-3.7,6.8-6.4,9.5c-2.7,2.6-6,4.6-9.7,6.1
			c-3.8,1.4-7.8,2.1-12.2,2.1s-8.5-0.7-12.2-2.1c-3.7-1.4-7-3.5-9.7-6.1c-2.7-2.6-4.9-5.8-6.4-9.5s-2.3-7.7-2.3-12.2
			c0-4.5,0.8-8.6,2.3-12.2s3.7-6.7,6.4-9.3c2.7-2.5,6-4.5,9.7-5.9c3.7-1.4,7.8-2.1,12.2-2.1s8.5,0.7,12.2,2.1c3.8,1.4,7,3.3,9.7,5.9
			c2.7,2.5,4.9,5.6,6.4,9.3C686.4,324.1,687.1,328.1,687.1,332.6z M672.6,332.6c0-2.4-0.4-4.7-1.2-6.8c-0.8-2.1-1.9-3.9-3.3-5.4
			c-1.4-1.5-3.1-2.7-5.1-3.6s-4.2-1.3-6.6-1.3s-4.6,0.4-6.5,1.3c-2,0.9-3.7,2.1-5.1,3.6c-1.4,1.5-2.5,3.3-3.3,5.4
			c-0.8,2.1-1.2,4.4-1.2,6.8c0,2.5,0.4,4.9,1.2,7c0.8,2.1,1.9,4,3.3,5.5s3.1,2.7,5,3.6c2,0.9,4.1,1.3,6.5,1.3s4.6-0.4,6.5-1.3
			c2-0.9,3.7-2.1,5.1-3.6c1.4-1.5,2.5-3.4,3.3-5.5C672.2,337.5,672.6,335.2,672.6,332.6z"/>
		<path id="XMLID_16_" class="st0" d="M741.1,361l-22.6-36.8h-0.2l0.3,36.8h-13.2v-56.3h15.5l22.6,36.7h0.2l-0.3-36.7h13.2V361
			H741.1z"/>
	</g>
	<g id="XMLID_94_">
		<path id="XMLID_27_" class="st0" d="M101.5,143.6l14.7,25.5c1.6,2.8,1.6,6.2,0,9l-14.7,25.5c-1.8,3-6.1,3.1-7.9,0l-14.9-25.5
			c-1.6-2.8-1.6-6.3,0-9.1l14.9-25.5C95.4,140.6,99.8,140.6,101.5,143.6z"/>
	</g>
	<g id="XMLID_87_">
		<path id="XMLID_25_" class="st0" d="M79.5,208.7l9.4,16.3c1.6,2.8,1.6,6.2,0,9l-9.4,16.3c-1.8,3-6.1,3.1-7.9,0L62,234.1
			c-1.6-2.8-1.6-6.3,0-9.1l9.5-16.3C73.3,205.7,77.7,205.7,79.5,208.7z"/>
	</g>
	<g id="XMLID_1_">
		<path id="XMLID_22_" class="st1" d="M386,228.1c-30-51.1-89.3-81.2-151.5-70.6c-33.2,5.6-62.1,22.3-83.5,45.6l17.9,4.5
			c2.3,0.6,3.4,3.2,2.2,5.3l-26.5,45.8c-1,1.7-3.1,2.6-5,2.1l-19.8-5.3c0.8-2.4,1.7-4.7,2.6-7c-8.8,21.9-12.4,46.2-9.5,71
			c9.8,83.3,86.6,141.1,168.7,128.3c13-2,25.3-5.7,36.7-10.8c4.2-1.8,5.9-6.8,3.8-10.9l-17.5-34.2c-1.8-3.6-6-5.2-9.8-3.8
			c-4.4,1.6-9,2.9-13.7,3.9c-56.5,12.1-29-11.6-43.6-24.5c-8.2-7.2-27.9-13.5-43.1-14.1c-34.1-1.4-33.7-13.8-27.2-27.6
			c4.5-9.6,2.4-14.9,3.3-19c0.9-4.2,1-5.7,3-7.9c3.1-3.2,0.6-7.5-2-11.2c-6.1-8.4-4.5-13.8,4-15.6c8.4-1.7,25.7-10.7,26.9-17.8
			c1.3-7,12.3-36,35.8-41.7c38.7-9.4,78.5,2.7,100.7,40.5c2.1,3.7,6.7,5.1,10.5,3.1l33.1-16.9C386.9,237.1,388.4,232,386,228.1z"/>
	</g>
</g>
</svg>
