<?xml version="1.0" encoding="UTF-8"?>
<svg width="100px" height="100px" viewBox="0 0 100 100" version="1.1" xmlns="http://www.w3.org/2000/svg" xmlns:xlink="http://www.w3.org/1999/xlink">
    <!-- Generator: Sketch 60.1 (88133) - https://sketch.com -->
    <title>Object / dice [Light]</title>
    <desc>Created with Sketch.</desc>
    <g id="Object-/-dice-[Light]" stroke="none" stroke-width="1" fill="none" fill-rule="evenodd">
        <g id="dice" transform="translate(16.000000, 9.000000)">
            <polyline id="Fill-2281" fill="#FDAA02" fill-rule="nonzero" points="34.6566008 40.0158009 0.00550000012 20.0090004 34.6566008 -1.45661261e-13 69.3198015 20.0200004 34.6566008 40.0158009"></polyline>
            <polyline id="Fill-2283" fill="#ED4B54" fill-rule="nonzero" points="34.6566008 79.8886017 1.72306613e-13 59.8719013 1.72306613e-13 19.8528004 34.6566008 39.8629009 34.6566008 79.8886017"></polyline>
            <polyline id="Fill-2289" fill="#9E2E2C" fill-rule="nonzero" points="69.3198015 59.8719013 34.6566008 79.8886017 34.6566008 39.8629009 69.3198015 19.8528004 69.3198015 59.8719013"></polyline>
            <path d="M45.894201,63.8572014 C45.894201,66.1298014 44.300301,68.8886015 42.3335009,70.0205015 C40.3689009,71.1524015 38.7750008,70.2394015 38.7750008,67.9712015 C38.7750008,65.6942014 40.3689009,62.9464014 42.3335009,61.8090013 C44.300301,60.6705013 45.894201,61.5879013 45.894201,63.8572014 Z M26.3967006,61.4658013 C28.3569006,62.5999014 29.9585006,65.3587014 29.9585006,67.6357015 C29.9585006,69.9006015 28.3569006,70.8180015 26.3967006,69.6872015 C24.4321005,68.5443015 22.8382005,65.7866014 22.8382005,63.5195014 C22.8382005,61.2491013 24.4321005,60.3339013 26.3967006,61.4658013 Z M7.67800017,50.6638011 C9.64040021,51.7935011 11.2332002,54.5600012 11.2332002,56.8183012 C11.2332002,59.0854013 9.64040021,60.0028013 7.67800017,58.8808013 C5.70900012,57.7445013 4.12280009,54.9879012 4.12280009,52.7109011 C4.12280009,50.4460011 5.70900012,49.5264011 7.67800017,50.6638011 Z M55.5489012,47.814801 C55.5489012,50.0874011 53.9528012,52.8462011 51.9849011,53.9803012 C50.0225011,55.1122012 48.431901,54.1849012 48.431901,51.9288011 C48.431901,49.6595011 50.0225011,46.895201 51.9849011,45.762201 C53.9528012,44.619301 55.5489012,45.545501 55.5489012,47.814801 Z M17.3294004,45.762201 C19.2885004,46.895201 20.8846005,49.6595011 20.8846005,51.9288011 C20.8846005,54.1849012 19.2929004,55.1122012 17.3294004,53.9693012 C15.3659003,52.8462011 13.7698003,50.0874011 13.7698003,47.814801 C13.7698003,45.545501 15.3659003,44.619301 17.3294004,45.762201 Z M26.3967006,41.0344009 C28.3569006,42.1641009 29.9585006,44.922901 29.9585006,47.193301 C29.9585006,49.4604011 28.3569006,50.3844011 26.3967006,49.2448011 C24.4321005,48.115101 22.8382005,45.356301 22.8382005,43.0837009 C22.8382005,40.8166009 24.4321005,39.8992009 26.3967006,41.0344009 Z M64.6107014,32.6205007 C64.6107014,34.8898008 63.0234014,37.6398008 61.0533013,38.7783008 C59.0920013,39.9124009 57.4915012,38.9950008 57.4915012,36.7224008 C57.4915012,34.4553007 59.0920013,31.7053007 61.0533013,30.5624007 C63.0234014,29.4283006 64.6107014,30.3457007 64.6107014,32.6205007 Z M7.67800017,30.2269007 C9.64040021,31.3621007 11.2332002,34.1121007 11.2332002,36.3781008 C11.2332002,38.6595008 9.64040021,39.5769009 7.67800017,38.4362008 C5.70900012,37.3065008 4.12280009,34.5543007 4.12280009,32.2795007 C4.12280009,30.0102007 5.70900012,29.0840006 7.67800017,30.2269007 Z M38.2195008,17.9597004 C40.1786009,19.0916004 40.1786009,20.9396005 38.2195008,22.0671005 C36.2483008,23.2001005 33.0671007,23.2001005 31.1025007,22.0671005 C29.1379006,20.9308005 29.1379006,19.0916004 31.1025007,17.9597004 C33.0671007,16.8256004 36.2483008,16.8256004 38.2195008,17.9597004 Z" id="Combined-Shape" fill="#FFFFFF"></path>
        </g>
    </g>
</svg>