<svg xmlns="http://www.w3.org/2000/svg" width="35" height="34" viewBox="0 0 35 34">
    <path fill="#FFF" fill-rule="nonzero" d="M17.259 0a17 17 0 1 0 16.997 17c0-9.388-7.61-16.999-16.997-17zm4.601 14.78c-.07.699-.152 1.397-.21 2.096-.018.215-.068.298-.304.296-.78-.015-1.561 0-2.343 0h-.284v10.316c-.104 0-.187.015-.27.015h-3.766c-.213 0-.281-.05-.281-.274V17.171h-2.025v-3.666h2.025v-.296c.012-.884-.03-1.772.048-2.653.174-1.916 1.323-3.5 3.543-3.682 1.278-.106 2.571-.043 3.857-.053.015 0 .028.012.053.025v3.53H19.7c-.613 0-.96.307-.98.914-.023.724 0 1.45 0 2.207h3.27l-.129 1.283z"/>
</svg>
