<?xml version="1.0" encoding="UTF-8"?>
<svg width="34px" height="34px" viewBox="0 0 34 34" version="1.1" xmlns="http://www.w3.org/2000/svg" xmlns:xlink="http://www.w3.org/1999/xlink">
    <!-- Generator: Sketch 51.1 (57501) - http://www.bohemiancoding.com/sketch -->
    <title>Circle_White_Instagram</title>
    <desc>Created with Sketch.</desc>
    <defs></defs>
    <g id="Symbols" stroke="none" stroke-width="1" fill="none" fill-rule="evenodd">
        <g id="Fooooooter" transform="translate(-1198.000000, -89.000000)" fill="#FFFFFF" fill-rule="nonzero">
            <g id="Social-Media">
                <g transform="translate(1118.000000, 52.000000)">
                    <g id="Circle_White_Instagram" transform="translate(80.000000, 37.000000)">
                        <path d="M22.4575,9.79 L11.625,9.79 C10.6342198,9.79137704 9.83137704,10.5942198 9.83,11.585 L9.83,22.5 C9.83137704,23.4907802 10.6342198,24.293623 11.625,24.295 L22.4575,24.295 C23.4473037,24.2922477 24.2486272,23.4898066 24.25,22.5 L24.25,11.585 C24.2486272,10.5951934 23.4473037,9.79275234 22.4575,9.79 Z M17.0425,21.69 C14.4757566,21.69 12.395,19.6092434 12.395,17.0425 C12.395,14.4757566 14.4757566,12.395 17.0425,12.395 C19.6092434,12.395 21.69,14.4757566 21.69,17.0425 C21.69,18.2750936 21.2003541,19.4572034 20.3287788,20.3287788 C19.4572034,21.2003541 18.2750936,21.69 17.0425,21.69 Z M21.8725,13.3975 C21.1628141,13.3975 20.5875,12.8221859 20.5875,12.1125 C20.5875,11.4028141 21.1628141,10.8275 21.8725,10.8275 C22.5821859,10.8275 23.1575,11.4028141 23.1575,12.1125 C23.1575,12.8221859 22.5821859,13.3975 21.8725,13.3975 Z" id="Shape"></path>
                        <path d="M17.235,0.25 C10.4400504,0.171383242 4.26751119,4.19573234 1.59811324,10.444879 C-1.07128471,16.6940258 0.288714185,23.9359888 5.04339693,28.790936 C9.79807967,33.6458832 17.0100895,35.1566912 23.3135733,32.6182642 C29.6170572,30.0798372 33.7693215,23.9926106 33.8325,17.1975 C33.9172061,7.93911037 26.4931415,0.358490662 17.235,0.25 Z M26.05,22.5 C26.0431421,24.4812354 24.4387354,26.0856421 22.4575,26.0925 L11.625,26.0925 C9.6441734,26.0856345 8.04048661,24.4808309 8.035,22.5 L8.035,11.585 C8.04459641,9.60709823 9.64708678,8.00683975 11.625,8 L22.4575,8 C24.4358244,8.00682932 26.0390363,9.60669418 26.05,11.585 L26.05,22.5 Z" id="Shape"></path>
                        <path d="M17.0425,14.19 C15.8885445,14.1889886 14.8476525,14.8833364 14.4053518,15.9491621 C13.9630512,17.0149879 14.2064815,18.2423088 15.0220938,19.0586365 C15.8377061,19.8749643 17.0648131,20.1194706 18.1310263,19.6781047 C19.1972394,19.2367388 19.8924996,18.196456 19.8925,17.0425 C19.8911243,15.4686536 18.6163445,14.1927557 17.0425,14.19 Z" id="Shape"></path>
                    </g>
                </g>
            </g>
        </g>
    </g>
</svg>