<?xml version="1.0" encoding="UTF-8"?>
<svg width="100px" height="100px" viewBox="0 0 100 100" version="1.1" xmlns="http://www.w3.org/2000/svg" xmlns:xlink="http://www.w3.org/1999/xlink">
    <!-- Generator: Sketch 60 (88103) - https://sketch.com -->
    <title>Object / School</title>
    <desc>Created with Sketch.</desc>
    <defs>
        <path d="M17.7433253,13.3733553 C18.7939752,13.3965632 19.3253284,12.1168655 18.5672425,11.3890541 L13.855112,6.86510497 L18.5672425,2.34115581 C19.316378,1.6219374 18.8072844,0.356573437 17.7687859,0.356573437 L1.31924712,0.356573437 C0.682511065,0.356573437 0.166334502,0.87275 0.166334502,1.50948606 L0.166334502,21.2826331 C0.166334502,21.9193692 0.682511065,22.4355458 1.31924712,22.4355458 C1.95598318,22.4355458 2.47215975,21.9193692 2.47215975,21.2826331 L2.47215975,13.0360293 L17.7433253,13.3733553 Z" id="path-1"></path>
        <path d="M84.5656939,28.195862 C83.9831419,27.6184796 82.1845199,25.9485931 80.9376334,25.9485931 L60.0208747,25.9485931 L49.5426423,16.1507121 C48.6608138,15.2767089 47.2177679,15.2767089 46.3359394,16.1507121 L35.857707,25.9485931 L12.6978563,25.9485931 C11.4509698,25.9485931 10.2787542,26.9976319 9.06979578,28.195862 C9.06979578,28.195862 0.000237050672,35.1168159 0.000237050672,38.7849274 C0.000237050672,40.3531992 1.02014757,40.5834474 2.26762673,40.5834474 L29.5640117,40.5834474 L46.3359394,24.5477211 C47.2177679,23.6737179 48.6608138,23.6737179 49.5426423,24.5477211 L66.31457,40.5834474 L91.3684556,40.5834474 C92.6153421,40.5834474 93.6358453,39.8521745 93.6358453,38.7849274 C93.6358453,37.3118091 84.5656939,28.195862 84.5656939,28.195862" id="path-3"></path>
        <path d="M86.3431232,30.2237165 C86.3431232,31.4595382 85.32262,32.4709854 84.0757335,32.4709854 L80.1886951,32.4709854 C78.9418086,32.4709854 77.9213054,31.4595382 77.9213054,30.2237165 L77.9213054,25.1359373 C77.9213054,23.9001156 78.9418086,22.8886684 80.1886951,22.8886684 L84.0757335,22.8886684 C85.32262,22.8886684 86.3431232,23.9001156 86.3431232,25.1359373 L86.3431232,30.2237165 Z M86.3431232,44.2723778 C86.3431232,45.5081995 85.32262,46.5196467 84.0757335,46.5196467 L80.1886951,46.5196467 C78.9418086,46.5196467 77.9213054,45.5081995 77.9213054,44.2723778 L77.9213054,39.1845985 C77.9213054,37.9487768 78.9418086,36.9373296 80.1886951,36.9373296 L84.0757335,36.9373296 C85.32262,36.9373296 86.3431232,37.9487768 86.3431232,39.1845985 L86.3431232,44.2723778 Z M72.897609,30.2237165 C72.897609,31.4595382 71.8771059,32.4709854 70.6302194,32.4709854 L66.743181,32.4709854 C65.4962944,32.4709854 64.4757913,31.4595382 64.4757913,30.2237165 L64.4757913,25.1359373 C64.4757913,23.9001156 65.4962944,22.8886684 66.743181,22.8886684 L70.6302194,22.8886684 C71.8771059,22.8886684 72.897609,23.9001156 72.897609,25.1359373 L72.897609,30.2237165 Z M72.897609,44.2723778 C72.897609,45.5081995 71.8771059,46.5196467 70.6302194,46.5196467 L66.743181,46.5196467 C65.4962944,46.5196467 64.4757913,45.5081995 64.4757913,44.2723778 L64.4757913,39.1845985 C64.4757913,37.9487768 65.4962944,36.9373296 66.743181,36.9373296 L70.6302194,36.9373296 C71.8771059,36.9373296 72.897609,37.9487768 72.897609,39.1845985 L72.897609,44.2723778 Z M48.3190101,25.0214006 C44.7193956,25.0214006 41.8013018,22.1292019 41.8013018,18.5615303 C41.8013018,17.7697587 41.9524216,17.0144038 42.2149553,16.3130867 C43.1370824,13.8561275 45.5182564,12.1010727 48.3190101,12.1010727 C51.1197638,12.1010727 53.5015304,13.8561275 54.4230649,16.3130867 C54.6861911,17.0144038 54.8367183,17.7697587 54.8367183,18.5615303 C54.8367183,22.1292019 51.9186245,25.0214006 48.3190101,25.0214006 L48.3190101,25.0214006 Z M30.8211147,30.2237165 C30.8211147,31.4595382 29.8012042,32.4709854 28.553725,32.4709854 L24.6672792,32.4709854 C23.4198001,32.4709854 22.3998896,31.4595382 22.3998896,30.2237165 L22.3998896,25.1359373 C22.3998896,23.9001156 23.4198001,22.8886684 24.6672792,22.8886684 L28.553725,22.8886684 C29.8012042,22.8886684 30.8211147,23.9001156 30.8211147,25.1359373 L30.8211147,30.2237165 Z M30.8211147,44.2723778 C30.8211147,45.5081995 29.8012042,46.5196467 28.553725,46.5196467 L24.6672792,46.5196467 C23.4198001,46.5196467 22.3998896,45.5081995 22.3998896,44.2723778 L22.3998896,39.1845985 C22.3998896,37.9487768 23.4198001,36.9373296 24.6672792,36.9373296 L28.553725,36.9373296 C29.8012042,36.9373296 30.8211147,37.9487768 30.8211147,39.1845985 L30.8211147,44.2723778 Z M17.3761932,30.2237165 C17.3761932,31.4595382 16.3550974,32.4709854 15.1082109,32.4709854 L11.2211725,32.4709854 C9.97428593,32.4709854 8.95378279,31.4595382 8.95378279,30.2237165 L8.95378279,25.1359373 C8.95378279,23.9001156 9.97428593,22.8886684 11.2211725,22.8886684 L15.1082109,22.8886684 C16.3550974,22.8886684 17.3761932,23.9001156 17.3761932,25.1359373 L17.3761932,30.2237165 Z M17.3761932,44.2723778 C17.3761932,45.5081995 16.3550974,46.5196467 15.1082109,46.5196467 L11.2211725,46.5196467 C9.97428593,46.5196467 8.95378279,45.5081995 8.95378279,44.2723778 L8.95378279,39.1845985 C8.95378279,37.9487768 9.97428593,36.9373296 11.2211725,36.9373296 L15.1082109,36.9373296 C16.3550974,36.9373296 17.3761932,37.9487768 17.3761932,39.1845985 L17.3761932,44.2723778 Z M91.7543974,16.3130867 L64.9226318,16.3130867 L49.9285841,1.45268325 C49.0467556,0.578680079 47.6037097,0.578680079 46.7218812,1.45268325 L31.7278335,16.3130867 L2.65356854,16.3130867 C1.40668201,16.3130867 0.386178862,17.3251213 0.386178862,18.560943 L0.386178862,53.3683544 C0.386178862,54.6047634 1.40668201,55.6156233 2.65356854,55.6156233 L39.3970154,55.6156233 L39.3970154,39.9481766 C39.3970154,37.2421735 40.6190116,34.8110585 42.5367515,33.1517446 C44.1398067,31.7655568 46.2270379,30.9168104 48.5086506,30.9168104 C50.6978136,30.9168104 52.7127443,31.6921358 54.2885386,32.9790585 C56.3200629,34.6395471 57.6214711,37.1499567 57.6214711,39.9481766 L57.6214711,55.6156233 L91.7543974,55.6156233 C93.0012839,55.6156233 94.0217871,54.6047634 94.0217871,53.3683544 L94.0217871,18.560943 C94.0217871,17.3251213 93.0012839,16.3130867 91.7543974,16.3130867 L91.7543974,16.3130867 Z" id="path-5"></path>
        <path d="M1.17927392,4.58305949 C0.542537859,4.58305949 0.0263612959,5.09923605 0.0263612959,5.73597211 C0.0263612959,6.37270817 0.542537859,6.88888473 1.17927392,6.88888473 L4.91163675,6.88888473 C5.54837281,6.88888473 6.06454938,6.37270817 6.06454938,5.73597211 L6.06454938,1.17858593 C6.06454938,0.541849874 5.54837281,0.0256733112 4.91163675,0.0256733112 C4.2749007,0.0256733112 3.75872413,0.541849874 3.75872413,1.17858593 L3.75872413,4.58305949 L1.17927392,4.58305949 Z" id="path-7"></path>
    </defs>
    <g id="Object-/-School" stroke="none" stroke-width="1" fill="none" fill-rule="evenodd">
        <g id="Group-12" transform="translate(2.000000, 5.000000)">
            <g id="Group-11" transform="translate(0.386179, 0.384259)">
                <g id="Group-6" transform="translate(1.000000, 0.509458)">
                    <g id="Colour-/-21.Orange" transform="translate(46.613821, 0.106283)">
                        <mask id="mask-2" fill="white">
                            <use xlink:href="#path-1"></use>
                        </mask>
                        <use id="Mask" fill="#5FB9CD" fill-rule="nonzero" xlink:href="#path-1"></use>
                        <g id="Colour-/-11-Aqua-blue" mask="url(#mask-2)" fill="#60B9CE" fill-rule="nonzero">
                            <g transform="translate(-48.000000, -7.000000)" id="Rectangle-2">
                                <rect x="0" y="0" width="98" height="98"></rect>
                            </g>
                        </g>
                    </g>
                    <mask id="mask-4" fill="white">
                        <use xlink:href="#path-3"></use>
                    </mask>
                    <use id="Mask" fill="#222A4E" xlink:href="#path-3"></use>
                    <g id="Colour-/-08-Dark-Navy" mask="url(#mask-4)" fill="#222950" fill-rule="nonzero">
                        <g transform="translate(-1.386179, -6.893717)" id="Rectangle-2">
                            <rect x="0" y="0" width="98" height="98"></rect>
                        </g>
                    </g>
                </g>
                <g id="Colour-/-21.Orange" transform="translate(0.613821, 28.615741)">
                    <mask id="mask-6" fill="white">
                        <use xlink:href="#path-5"></use>
                    </mask>
                    <g id="Mask"></g>
                    <g id="Colour-/-21-Orange" mask="url(#mask-6)" fill="#FF764C" fill-rule="nonzero">
                        <g transform="translate(0.000000, -14.000000)" id="Rectangle-2">
                            <rect x="0" y="0" width="98" height="98"></rect>
                        </g>
                    </g>
                </g>
                <g id="Colour-/-21.Orange" transform="translate(44.613821, 42.615741)">
                    <mask id="mask-8" fill="white">
                        <use xlink:href="#path-7"></use>
                    </mask>
                    <use id="Mask" fill="#5053A2" fill-rule="nonzero" xlink:href="#path-7"></use>
                    <g id="Colour-/-09-Indigo" mask="url(#mask-8)" fill="#5053A3" fill-rule="nonzero">
                        <g transform="translate(-45.000000, -49.000000)" id="Rectangle-2">
                            <rect x="0" y="0" width="98" height="98"></rect>
                        </g>
                    </g>
                </g>
            </g>
        </g>
    </g>
</svg>