<?xml version="1.0" encoding="UTF-8"?>
<svg width="100px" height="100px" viewBox="0 0 100 100" version="1.1" xmlns="http://www.w3.org/2000/svg" xmlns:xlink="http://www.w3.org/1999/xlink">
    <!-- Generator: Sketch 60.1 (88133) - https://sketch.com -->
    <title>Object / chart [Light]</title>
    <desc>Created with Sketch.</desc>
    <g id="Object-/-chart-[Light]" stroke="none" stroke-width="1" fill="none" fill-rule="evenodd">
        <g id="economy" transform="translate(5.000000, 15.000000)" fill-rule="nonzero">
            <path d="M87.5695,66.1555 C88.5714,66.1555 89.3755,66.607 89.3755,67.1832 L89.3755,69.5353 C89.3755,70.0986 88.5714,70.563 87.5695,70.563 L1.8146,70.563 C0.8213,70.563 -9.41469125e-14,70.0986 -9.41469125e-14,69.5353 L-9.41469125e-14,67.1832 C-9.41469125e-14,66.607 0.8213,66.1555 1.8146,66.1555 L87.5695,66.1555 Z M49.3597,4.26325641e-14 C50.353,4.26325641e-14 51.17,1.1739 51.17,2.623 L51.17,2.623 L51.17,3.9904 L87.5695,3.9904 C88.5714,3.9904 89.3755,4.9235 89.3755,6.0501 L89.3755,6.0501 L89.3755,10.7629 C89.3755,11.8981 88.5714,12.8226 87.5695,12.8226 L87.5695,12.8226 L1.8146,12.8226 C0.8213,12.8226 -9.41469125e-14,11.8981 -9.41469125e-14,10.7629 L-9.41469125e-14,10.7629 L-9.41469125e-14,6.0501 C-9.41469125e-14,4.9235 0.8213,3.9904 1.8146,3.9904 L1.8146,3.9904 L38.2141,3.9904 L38.2141,2.623 C38.2141,1.1739 39.0268,4.26325641e-14 40.033,4.26325641e-14 L40.033,4.26325641e-14 Z" id="Combined-Shape" fill="#ED4B54"></path>
            <polygon id="Fill-1518" fill="#F3F6FA" points="2.9627 66.1555 85.6087 66.1555 85.6087 12.8226 2.9627 12.8226"></polygon>
            <path d="M21.9945,34.3613 L21.9945,56.244 L14.6974,56.244 L14.6974,34.3613 L21.9945,34.3613 Z M47.945,43.215 L47.945,56.244 L40.6393,56.244 L40.6393,43.215 L47.945,43.215 Z M73.8869,32.7359 L73.8869,56.244 L66.5898,56.244 L66.5898,32.7359 L73.8869,32.7359 Z" id="Combined-Shape" fill="#777EA8"></path>
            <path d="M34.9676,39.4869 L34.9676,56.244 L27.6748,56.244 L27.6748,39.4869 L34.9676,39.4869 Z M60.9052,22.7212 L60.9052,56.244 L53.6081,56.244 L53.6081,22.7212 L60.9052,22.7212 Z" id="Combined-Shape" fill="#5053A3"></path>
        </g>
    </g>
</svg>