<?xml version="1.0" encoding="UTF-8"?>
<svg width="100px" height="100px" viewBox="0 0 100 100" version="1.1" xmlns="http://www.w3.org/2000/svg" xmlns:xlink="http://www.w3.org/1999/xlink">
    <!-- Generator: Sketch 60.1 (88133) - https://sketch.com -->
    <title>Object / glasses [Light]</title>
    <desc>Created with Sketch.</desc>
    <g id="Object-/-glasses-[Light]" stroke="none" stroke-width="1" fill="none" fill-rule="evenodd">
        <g id="glasses-" transform="translate(1.000000, 20.000000)" fill-rule="nonzero">
            <path d="M92.7123,24.2840565 L85.0024,6.43475646 C84.753,5.91875646 82.474,1.34785646 77.8128,0.24275646 C74.8888,-0.46244354 71.8745,0.37175646 68.8602,2.70665646 C67.6562,3.63545646 67.4455,5.35545646 68.37,6.55085646 C69.2859,7.74625646 71.0188,7.96125646 72.2099,7.02385646 C73.8611,5.75965646 75.3059,5.27375646 76.5443,5.56615646 C78.5868,6.04345646 79.9069,8.50305646 80.0531,8.74815646 L83.6694,17.1589565 C80.8959,15.9506565 77.83,15.2798565 74.6136,15.2798565 C63.4164,15.2798565 54.1284,23.3853565 52.2665,34.0579565 L45.0425,34.0579565 C43.1806,23.3853565 33.884,15.2798565 22.6782,15.2798565 C19.3844,15.2798565 16.2411,15.9893565 13.4031,17.2664565 L17.0796,8.74815646 C17.2086,8.50305646 18.5373,6.04345646 20.5841,5.56615646 C21.8096,5.27375646 23.2673,5.75965646 24.9142,7.02385646 C26.101,7.96125646 27.8253,7.74625646 28.7541,6.55085646 C29.6829,5.35545646 29.4679,3.63545646 28.2639,2.70665646 C25.2453,0.37175646 22.2267,-0.46244354 19.3113,0.24275646 C14.6458,1.34785646 12.3625,5.91875646 12.1174,6.43475646 L4.128,24.9118565 C1.5265,28.6055565 5.5067062e-14,33.1076565 5.5067062e-14,37.9623565 C5.5067062e-14,50.4968565 10.1566,60.6577565 22.6782,60.6577565 C33.884,60.6577565 43.1806,52.5436565 45.0425,41.8753565 L52.2665,41.8753565 C54.1284,52.5436565 63.4164,60.6577565 74.6136,60.6577565 C87.1524,60.6577565 97.309,50.4968565 97.309,37.9623565 C97.309,32.8367565 95.5976,28.0809565 92.7123,24.2840565" id="Fill-1554" fill="#5053A3"></path>
            <path d="M22.6782,21.1536565 C31.9791,21.1536565 39.517,28.6872565 39.517,37.9623565 C39.517,47.2632565 31.9791,54.7882565 22.6782,54.7882565 C13.3988,54.7882565 5.8609,47.2632565 5.8609,37.9623565 C5.8609,28.6872565 13.3988,21.1536565 22.6782,21.1536565 Z M74.6136,21.1536565 C83.9059,21.1536565 91.4438,28.6872565 91.4438,37.9623565 C91.4438,47.2632565 83.9059,54.7882565 74.6136,54.7882565 C65.3256,54.7882565 57.7963,47.2632565 57.7963,37.9623565 C57.7963,28.6872565 65.3256,21.1536565 74.6136,21.1536565 Z" id="Combined-Shape" fill="#F3F6FA"></path>
        </g>
        <path d="M32.0370878,54.6037118 L32.7917974,55.2597708 C33.4170192,55.8032679 33.4832703,56.7507018 32.9397732,57.3759237 L26.3791829,64.9230195 C25.8356858,65.5482414 24.8882519,65.6144924 24.26303,65.0709954 L23.5083204,64.4149363 C22.8830985,63.8714392 22.8168475,62.9240053 23.3603446,62.2987834 L29.9209349,54.7516876 C30.464432,54.1264657 31.4118659,54.0602147 32.0370878,54.6037118 Z M84.0370878,53.6037118 L84.7917974,54.2597708 C85.4170192,54.8032679 85.4832703,55.7507018 84.9397732,56.3759237 L78.3791829,63.9230195 C77.8356858,64.5482414 76.8882519,64.6144924 76.26303,64.0709954 L75.5083204,63.4149363 C74.8830985,62.8714392 74.8168475,61.9240053 75.3603446,61.2987834 L81.9209349,53.7516876 C82.464432,53.1264657 83.4118659,53.0602147 84.0370878,53.6037118 Z M24.6608317,52.9840885 L25.4155413,53.6401476 C26.0407632,54.1836447 26.1070142,55.1310786 25.5635172,55.7563005 L19.0029269,63.3033963 C18.4594298,63.9286182 17.5119958,63.9948692 16.886774,63.4513721 L16.1320644,62.7953131 C15.5068425,62.251816 15.4405914,61.3043821 15.9840885,60.6791602 L22.5446788,53.1320644 C23.0881759,52.5068425 24.0356099,52.4405914 24.6608317,52.9840885 Z M76.6608317,51.9840885 L77.4155413,52.6401476 C78.0407632,53.1836447 78.1070142,54.1310786 77.5635172,54.7563005 L71.0029269,62.3033963 C70.4594298,62.9286182 69.5119958,62.9948692 68.886774,62.4513721 L68.1320644,61.7953131 C67.5068425,61.251816 67.4405914,60.3043821 67.9840885,59.6791602 L74.5446788,52.1320644 C75.0881759,51.5068425 76.0356099,51.4405914 76.6608317,51.9840885 Z" id="Combined-Shape" fill="#BABCC5" fill-rule="nonzero"></path>
    </g>
</svg>