<?xml version="1.0" encoding="UTF-8"?>
<svg width="100px" height="100px" viewBox="0 0 100 100" version="1.1" xmlns="http://www.w3.org/2000/svg" xmlns:xlink="http://www.w3.org/1999/xlink">
    <!-- Generator: Sketch 60.1 (88133) - https://sketch.com -->
    <title>Object / doc [Light] </title>
    <desc>Created with Sketch.</desc>
    <defs>
        <linearGradient x1="28.6878066%" y1="22.9570312%" x2="74.4942404%" y2="77.1875%" id="linearGradient-1">
            <stop stop-color="#ED4B54" offset="0%"></stop>
            <stop stop-color="#EE4E53" offset="6.80859375%"></stop>
            <stop stop-color="#FF764C" offset="100%"></stop>
        </linearGradient>
    </defs>
    <g id="Object-/-doc-[Light]-" stroke="none" stroke-width="1" fill="none" fill-rule="evenodd">
        <g id="doc" transform="translate(14.000000, 4.000000)" fill-rule="nonzero">
            <polyline id="Fill-1131" fill="#F3F6FA" points="14.080423 0 0 13.0677 0 90.0119 71 90.0119 71 0 14.080423 0"></polyline>
            <path d="M60.1076764,60 C61.6992512,60 63,61.5740358 63,63.5 C63,65.4259642 61.6992512,67 60.1076764,67 L11.8923236,67 C10.3027408,67 9,65.4259642 9,63.5 C9,61.5740358 10.3027408,60 11.8923236,60 L60.1076764,60 Z M28.0268927,47 C29.6617948,47 31,48.5740358 31,50.5 C31,52.4259642 29.6617948,54 28.0268927,54 L26.9710611,54 C25.336159,54 24,52.4259642 24,50.5 C24,48.5740358 25.336159,47 26.9710611,47 L28.0268927,47 Z M60.0825348,33 C61.6879444,33 63,34.5740358 63,36.5 C63,38.4259642 61.6879444,40 60.0825348,40 L52.9174652,40 C51.3120556,40 50,38.4259642 50,36.5 C50,34.5740358 51.3120556,33 52.9174652,33 L60.0825348,33 Z M60.1076764,20 C61.6992512,20 63,21.3491736 63,23 C63,24.6508264 61.6992512,26 60.1076764,26 L11.8923236,26 C10.3027408,26 9,24.6508264 9,23 C9,21.3491736 10.3027408,20 11.8923236,20 L60.1076764,20 Z" id="Mask" fill="#BABCC5"></path>
            <path d="M19.0809767,47 C20.6861382,47 22,48.5740358 22,50.5 C22,52.4259642 20.6861382,54 19.0809767,54 L11.9170144,54 C10.3118529,54 9,52.4259642 9,50.5 C9,48.5740358 10.3118529,47 11.9170144,47 L19.0809767,47 Z M43.0717843,33 C44.1328341,33 45,34.5740358 45,36.5 C45,38.4259642 44.1328341,40 43.0717843,40 L10.9282157,40 C9.86849386,40 9,38.4259642 9,36.5 C9,34.5740358 9.86849386,33 10.9282157,33 L43.0717843,33 Z" id="Combined-Shape" fill="#7D7F88"></path>
            <polyline id="Fill-1132" fill="#777EA8" points="13.0634 13.0677 13.0634 -1.13464793e-13 2.27373675e-13 13.0677 13.0634 13.0677"></polyline>
            <g id="Group" transform="translate(33.751300, 44.576200)">
                <path d="M39.6675,22.7384 C40.8037339,23.8746339 41.2929011,25.4097062 41.1350016,26.8885588 L45.9412,31.6953 C49.321,35.0751 49.4844,40.3813 46.2981,43.5633 L43.559,46.3067 C40.3813,49.4844 35.0708,49.321 31.6867,45.9412 L27.1365146,41.3942692 C25.4803059,41.7764664 23.6697766,41.3212766 22.3772,40.0287 C20.3863,38.0378 20.3863,34.8042 22.3772,32.809 L27.475025,27.7126121 L28.9648,26.2214 L29.074025,26.1146121 L32.4521,22.7384 C34.4473,20.7432 37.6766,20.7475 39.6675,22.7384 Z" id="Combined-Shape" fill="#777EA8"></path>
                <path d="M40.0029,23.5898 C41.9895,25.5764 42.0368,28.7627 40.1104,30.6934 L30.3322,40.4716 C28.3972,42.398 25.2152,42.355 23.22,40.3598 C21.2291,38.3689 21.1861,35.1869 23.1168,33.2476 L32.8907,23.4737 C34.8257,21.543 38.012,21.5946 40.0029,23.5898" id="Fill-1134" fill="#5053A3"></path>
                <path d="M29.3002,8.9182 L1.4147,1.42108547e-14 L1.0621,0.3526 L1.0535,0.3483 L16.5421,15.8412 C17.6429,15.0715 19.1608,15.1704 20.1412,16.1508 C21.242,17.2516 21.242,19.0404 20.1412,20.1455 C19.0404,21.2506 17.2559,21.2506 16.1508,20.1455 C15.1618,19.1651 15.0715,17.6472 15.8326,16.5464 L11.6229,12.3281 L0.3526,1.0664 L0.3526,1.0578 L0.3526,1.0664 L-7.06990022e-13,1.419 L8.9139,29.3088 C8.9139,29.3088 15.0371,26.0322 21.6634,31.0546 L31.046,21.672 C26.0279,15.0371 29.3002,8.9182 29.3002,8.9182" id="Fill-1137" fill="url(#linearGradient-1)"></path>
            </g>
        </g>
    </g>
</svg>