<?xml version="1.0" encoding="UTF-8"?>
<svg width="100px" height="100px" viewBox="0 0 100 100" version="1.1" xmlns="http://www.w3.org/2000/svg" xmlns:xlink="http://www.w3.org/1999/xlink">
    <!-- Generator: Sketch 60 (88103) - https://sketch.com -->
    <title>Object /  Tutor profile</title>
    <desc>Created with Sketch.</desc>
    <defs>
        <path d="M90.0002,0.1768 L0.0002,0.1768 L0.0002,45.8801127 C0.0002,46.4680646 0.2932,47.055251 0.8792,47.5038706 C1.4642,47.9524902 2.2322,48.1768 3.0002,48.1768 L87.0002,48.1768 C87.7682,48.1768 88.5362,47.9524902 89.1212,47.5038706 C89.7072,47.055251 90.0002,46.4680646 90.0002,45.8801127 L90.0002,0.1768 Z" id="path-1"></path>
        <path d="M90,3.5889 C90,2.8209 89.707,2.0529 89.121,1.4679 C88.536,0.8819 87.768,0.5889 87,0.5889 L3,0.5889 C2.232,0.5889 1.464,0.8819 0.879,1.4679 C0.293,2.0529 0,2.8209 0,3.5889 L0,11.1769 L90,11.1769 L90,3.5889 Z" id="path-3"></path>
        <path d="M18.5684,10.589 C18.5684,8.378 20.3584,6.586 22.5684,6.586 C24.7774,6.586 26.5684,8.378 26.5684,10.589 L18.5684,10.589 Z M33.1564,10.589 C33.1564,4.74 28.4154,0 22.5684,0 C16.7204,0 11.9794,4.74 11.9794,10.589 L0.5084,10.589 L0.5084,21.178 L44.6274,21.178 L44.6274,10.589 L33.1564,10.589 Z" id="path-5"></path>
        <linearGradient x1="28.6759976%" y1="25.2574728%" x2="74.5078125%" y2="74.8747637%" id="linearGradient-7">
            <stop stop-color="#ED4B54" offset="0%"></stop>
            <stop stop-color="#EE4E53" offset="6.80859375%"></stop>
            <stop stop-color="#FF764C" offset="100%"></stop>
        </linearGradient>
        <path d="M16.216,0.2817 C25.172,0.2817 32.432,7.5407 32.432,16.4967 C32.432,20.7417 30.788,24.5917 28.119,27.4827 C27.997,27.1807 27.868,26.8807 27.724,26.5867 C26.964,25.0347 25.935,23.6787 24.63,22.5357 C23.69,21.7127 22.664,21.0257 21.52,20.5197 C21.397,20.4647 21.277,20.4057 21.14,20.3407 C23.039,18.8287 24.164,16.9137 24.422,14.5157 C24.68,12.1037 24.003,9.9657 22.411,8.1597 C19.392,4.7327 14.328,4.3687 10.831,7.3457 C9.102,8.8187 8.121,10.7347 7.994,13.0057 C7.826,15.9937 8.958,18.4497 11.307,20.3567 C11.082,20.4567 10.88,20.5437 10.682,20.6387 C9.099,21.3927 7.754,22.4527 6.6,23.7687 C5.62,24.8867 4.881,26.1427 4.335,27.5077 C1.653,24.6147 -1.0658141e-13,20.7537 -1.0658141e-13,16.4967 C-1.0658141e-13,7.5407 7.26,0.2817 16.216,0.2817 Z M18.807,15.3028 C18.807,15.3028 16.345,21.2208 13.883,15.3028 L13.883,15.3028 Z M13.2494,11.6148 C13.5994,11.6148 13.8834,11.8988 13.8834,12.2478 C13.8834,12.5988 13.5994,12.8828 13.2494,12.8828 C12.8994,12.8828 12.6164,12.5988 12.6164,12.2478 C12.6164,11.8988 12.8994,11.6148 13.2494,11.6148 Z M18.9876,11.6148 C19.3376,11.6148 19.6206,11.8988 19.6206,12.2478 C19.6206,12.5988 19.3376,12.8828 18.9876,12.8828 C18.6376,12.8828 18.3536,12.5988 18.3536,12.2478 C18.3536,11.8988 18.6376,11.6148 18.9876,11.6148 Z" id="path-8"></path>
        <linearGradient x1="32.3768575%" y1="22.9570312%" x2="70.2543905%" y2="77.1875%" id="linearGradient-10">
            <stop stop-color="#ED4B54" offset="0%"></stop>
            <stop stop-color="#EE4E53" offset="6.80859375%"></stop>
            <stop stop-color="#FF764C" offset="100%"></stop>
        </linearGradient>
        <path d="M9.3858,6.6153 C9.7358,6.6153 10.0198,6.8983 10.0198,7.2483 C10.0198,7.5983 9.7358,7.8833 9.3858,7.8833 C9.0358,7.8833 8.7528,7.5983 8.7528,7.2483 C8.7528,6.8983 9.0358,6.6153 9.3858,6.6153 L9.3858,6.6153 Z M14.9438,10.3033 C14.9438,10.3033 12.4818,16.2203 10.0198,10.3033 L14.9438,10.3033 Z M15.1238,6.6153 C15.4738,6.6153 15.7578,6.8983 15.7578,7.2483 C15.7578,7.5983 15.4738,7.8833 15.1238,7.8833 C14.7738,7.8833 14.4898,7.5983 14.4898,7.2483 C14.4898,6.8983 14.7738,6.6153 15.1238,6.6153 L15.1238,6.6153 Z M12.3528,27.7133 C17.0638,27.7133 21.2928,25.6913 24.2558,22.4823 C24.1338,22.1803 24.0048,21.8813 23.8608,21.5873 C23.1008,20.0353 22.0718,18.6783 20.7668,17.5363 C19.8268,16.7133 18.8008,16.0253 17.6568,15.5193 C17.5328,15.4653 17.4128,15.4053 17.2768,15.3413 C19.1758,13.8293 20.3008,11.9143 20.5578,9.5153 C20.8168,7.1033 20.1398,4.9663 18.5478,3.1593 C15.5288,-0.2677 10.4648,-0.6307 6.9678,2.3453 C5.2388,3.8183 4.2578,5.7343 4.1308,8.0063 C3.9628,10.9943 5.0948,13.4493 7.4438,15.3563 C7.2188,15.4573 7.0168,15.5443 6.8188,15.6383 C5.2358,16.3923 3.8908,17.4533 2.7368,18.7683 C1.7568,19.8863 1.0178,21.1423 0.4718,22.5083 C3.4328,25.7013 7.6528,27.7133 12.3528,27.7133 L12.3528,27.7133 Z" id="path-11"></path>
        <path d="M16.5381759,17.0625 C17.5486826,17.0625 18.375,17.9477586 18.375,19.0303448 C18.375,20.1147414 17.5486826,21 16.5381759,21 L16.5381759,21 L1.83682408,21 C0.826317363,21 0,20.1147414 0,19.0303448 C0,17.9477586 0.826317363,17.0625 1.83682408,17.0625 L1.83682408,17.0625 Z M29.1725034,17.0625 C30.0919197,17.0625 30.84375,17.9477586 30.84375,19.0303448 C30.84375,20.1147414 30.0919197,21 29.1725034,21 L29.1725034,21 L28.5774966,21 C27.6580803,21 26.90625,20.1147414 26.90625,19.0303448 C26.90625,17.9477586 27.6580803,17.0625 28.5774966,17.0625 L28.5774966,17.0625 Z M38.9207043,17.0625 C39.8926858,17.0625 40.6875,17.9477586 40.6875,19.0303448 C40.6875,20.1147414 39.8926858,21 38.9207043,21 L38.9207043,21 L34.5809211,21 C33.6073142,21 32.8125,20.1147414 32.8125,19.0303448 C32.8125,17.9477586 33.6073142,17.0625 34.5809211,17.0625 L34.5809211,17.0625 Z M13.4216189,8.53125 C14.3406762,8.53125 15.09375,9.41650862 15.09375,10.4990948 C15.09375,11.5834914 14.3406762,12.46875 13.4216189,12.46875 L13.4216189,12.46875 L12.8283811,12.46875 C11.9093238,12.46875 11.15625,11.5834914 11.15625,10.4990948 C11.15625,9.41650862 11.9093238,8.53125 12.8283811,8.53125 L12.8283811,8.53125 Z M6.10657895,8.53125 C7.08018576,8.53125 7.875,9.41650862 7.875,10.4990948 C7.875,11.5834914 7.08018576,12.46875 6.10657895,12.46875 L6.10657895,12.46875 L1.76679567,12.46875 C0.794814241,12.46875 0,11.5834914 0,10.4990948 C0,9.41650862 0.794814241,8.53125 1.76679567,8.53125 L1.76679567,8.53125 Z M40.0817308,8.53125 C41.1370436,8.53125 42,9.41650862 42,10.4990948 C42,11.5834914 41.1370436,12.46875 40.0817308,12.46875 L40.0817308,12.46875 L18.9807692,12.46875 C17.9254564,12.46875 17.0625,11.5834914 17.0625,10.4990948 C17.0625,9.41650862 17.9254564,8.53125 18.9807692,8.53125 L18.9807692,8.53125 Z M40.0601121,0 C41.1263372,0 42,0.886661305 42,1.96875 C42,3.05083869 41.1263372,3.9375 40.0601121,3.9375 L40.0601121,3.9375 L1.93810494,3.9375 C0.871879776,3.9375 0,3.05083869 0,1.96875 C0,0.886661305 0.871879776,0 1.93810494,0 L1.93810494,0 Z" id="path-13"></path>
    </defs>
    <g id="Object-/--Tutor-profile" stroke="none" stroke-width="1" fill="none" fill-rule="evenodd">
        <g id="Group-20" transform="translate(5.000000, 11.000000)">
            <g id="Group-3" transform="translate(0.000000, 21.876100)">
                <g id="Backgorund" transform="translate(0.000000, 0.123900)">
                    <mask id="mask-2" fill="white">
                        <use xlink:href="#path-1"></use>
                    </mask>
                    <use id="Mask" fill="#FFFFFF" xlink:href="#path-1"></use>
                    <g id="Colour-/-06-Charcoal" mask="url(#mask-2)" fill="#1D1E2B" fill-rule="nonzero">
                        <g transform="translate(-2.000000, -5.000000)" id="Rectangle-2">
                            <rect x="0" y="0" width="95" height="71"></rect>
                        </g>
                    </g>
                </g>
            </g>
            <g id="top" transform="translate(0.000000, 10.876100)">
                <g transform="translate(0.000200, 0.123900)">
                    <mask id="mask-4" fill="white">
                        <use xlink:href="#path-3"></use>
                    </mask>
                    <use id="Mask" fill="#E6E5E5" xlink:href="#path-3"></use>
                    <g id="Colour-/-09-Indigo" mask="url(#mask-4)" fill="#5053A3" fill-rule="nonzero">
                        <g transform="translate(-0.568400, -5.000000)" id="Rectangle-2">
                            <rect x="0" y="0" width="92" height="18"></rect>
                        </g>
                    </g>
                </g>
            </g>
            <g id="Group-9" transform="translate(22.000000, 0.876100)">
                <g id="handle" transform="translate(0.431800, 0.123800)">
                    <mask id="mask-6" fill="white">
                        <use xlink:href="#path-5"></use>
                    </mask>
                    <use id="Mask" fill="#3F4A5A" xlink:href="#path-5"></use>
                    <g id="Gradient-/-02-Sunset" mask="url(#mask-6)" fill="url(#linearGradient-7)" fill-rule="nonzero">
                        <g transform="translate(-1.000000, -7.999900)" id="Rectangle-2">
                            <rect x="0" y="0" width="46" height="44"></rect>
                        </g>
                    </g>
                </g>
            </g>
            <g id="profile" transform="translate(6.000000, 30.000000)">
                <g id="Circle">
                    <mask id="mask-9" fill="white">
                        <use xlink:href="#path-8"></use>
                    </mask>
                    <use id="Mask" fill="#222950" xlink:href="#path-8"></use>
                    <g id="Gradient-/-02-Sunset" mask="url(#mask-9)" fill="url(#linearGradient-10)" fill-rule="nonzero">
                        <g transform="translate(-4.568200, -7.000000)" id="Rectangle-2">
                            <rect x="0" y="0" width="40" height="44"></rect>
                        </g>
                    </g>
                </g>
                <g id="face" transform="translate(3.863600, 5.000000)">
                    <mask id="mask-12" fill="white">
                        <use xlink:href="#path-11"></use>
                    </mask>
                    <use id="Mask" fill="#FFFFFF" xlink:href="#path-11"></use>
                    <g id="Colour-/-01-White" mask="url(#mask-12)" fill="#FFFFFF" fill-rule="nonzero">
                        <g transform="translate(-8.431800, -12.000000)" id="Rectangle-2">
                            <rect x="0" y="0" width="40" height="44"></rect>
                        </g>
                    </g>
                </g>
            </g>
        </g>
        <g id="Content" transform="translate(48.000000, 46.000000)">
            <mask id="mask-14" fill="white">
                <use xlink:href="#path-13"></use>
            </mask>
            <use id="Mask" fill="#3F7A8C" xlink:href="#path-13"></use>
            <g id="Colour-/-01-White" mask="url(#mask-14)" fill="#FFFFFF" fill-rule="nonzero">
                <g transform="translate(-1.000000, -6.000000)" id="Rectangle-2">
                    <rect x="0" y="0" width="48" height="55"></rect>
                </g>
            </g>
        </g>
    </g>
</svg>