<?xml version="1.0" encoding="UTF-8"?>
<svg width="35px" height="34px" viewBox="0 0 35 34" version="1.1" xmlns="http://www.w3.org/2000/svg" xmlns:xlink="http://www.w3.org/1999/xlink">
    <!-- Generator: Sketch 51.1 (57501) - http://www.bohemiancoding.com/sketch -->
    <title>Circle_White_WeChat</title>
    <desc>Created with Sketch.</desc>
    <defs></defs>
    <g id="Symbols" stroke="none" stroke-width="1" fill="none" fill-rule="evenodd">
        <g id="Fooooooter" transform="translate(-1237.000000, -89.000000)" fill="#FFFFFF" fill-rule="nonzero">
            <g id="Social-Media">
                <g transform="translate(1118.000000, 52.000000)">
                    <g id="Circle_White_WeChat" transform="translate(119.500000, 37.000000)">
                        <path d="M12.7411852,12.8444444 C12.5437103,12.636351 12.2723409,12.5142348 11.9856296,12.5044444 C11.6999923,12.49646 11.422539,12.600392 11.2124444,12.7940741 C11.0015336,12.9893017 10.8796078,13.2622699 10.874963,13.5496296 C10.8681066,13.8298185 10.9722029,14.1013739 11.1645926,14.3051852 C11.3623569,14.5118625 11.6341619,14.6314567 11.9201481,14.6376296 C12.2047416,14.6476663 12.4820601,14.5464948 12.6933333,14.3555556 C12.9053425,14.1654274 13.0308233,13.8971893 13.0408889,13.6125926 C13.045212,13.3304642 12.9363685,13.0583554 12.7386667,12.857037 L12.7411852,12.8444444 Z" id="Shape"></path>
                        <path d="M17.1687407,8.42351793e-16 C10.3262688,-0.00101867977 4.15698432,4.12000305 1.53777779,10.4413305 C-1.08142875,16.7626579 0.365286735,24.0393265 5.20328491,28.878045 C10.0412831,33.7167636 17.3177362,35.1645624 23.6394535,32.5462971 C29.9611708,29.9280317 34.083111,23.7593609 34.0831111,16.9168889 C34.0831112,7.5749326 26.5106969,0.00139079296 17.1687407,8.42351793e-16 Z M15.0254815,21.0271111 L15.0531852,21.3293333 L14.7484444,21.2915556 L14.1414815,21.2134815 C13.6604444,21.1505185 13.2020741,21.0900741 12.7235556,21.0497778 C12.6164663,21.0372081 12.5082744,21.0372081 12.4011852,21.0497778 C12.32138,21.0617285 12.2440046,21.0863866 12.172,21.1228148 C11.7362963,21.3746667 11.288,21.6542222 10.7994074,21.964 L10.2,22.3417778 L9.6962963,22.6540741 L9.82222222,22.0798519 C9.86251852,21.9035556 9.9002963,21.7197037 9.93555556,21.5408889 C10.0161481,21.1454815 10.0917037,20.7853333 10.2,20.4201481 C10.2401619,20.3203054 10.2506559,20.2109933 10.2302222,20.1053333 C10.1851117,20.0045342 10.1081251,19.9213534 10.0111111,19.8685926 C8.9327719,19.1406511 8.09480594,18.1089713 7.60340741,16.9042963 C7.15593788,15.7484438 7.10893926,14.4759341 7.46992593,13.2902222 C7.76203593,12.2516192 8.32125798,11.3077149 9.09185185,10.5525926 C9.92475801,9.769737 10.9271207,9.18969392 12.0208889,8.85762963 C13.5084362,8.37545113 15.1068875,8.35350644 16.6071111,8.79466667 C18.0807438,9.21305699 19.3833486,10.0888096 20.326963,11.2955556 C20.6595555,11.7265751 20.9315634,12.2011059 21.1354074,12.7059259 C21.3428535,13.2264439 21.4726848,13.7746206 21.5207407,14.3328889 L21.5459259,14.5847407 L21.2940741,14.5847407 C20.4397154,14.6180353 19.5962206,14.7880948 18.7957037,15.0884444 C18.016359,15.3905441 17.3061697,15.8471556 16.7078519,16.4308148 C16.1029732,17.0025897 15.6346874,17.7032968 15.3377778,18.4808889 C15.0440172,19.2954625 14.9372831,20.1656899 15.0254815,21.0271111 Z M27.0715556,20.666963 C26.9692202,21.8192419 26.4217183,22.8862382 25.5453333,23.6413333 C25.267786,23.8610888 25.0560579,24.1529773 24.9333333,24.485037 C24.8492421,24.7758675 24.8770953,25.0876441 25.0114074,25.358963 C24.6262798,25.1215696 24.1985368,24.9615937 23.7521481,24.888 C23.3726536,24.8720795 22.9936924,24.9302496 22.6364444,25.0592593 C22.4105698,25.1319563 22.1788473,25.1850418 21.9438519,25.2179259 C21.1092564,25.3085941 20.2649221,25.2227877 19.4656296,24.9660741 C18.6836182,24.7042995 17.9684034,24.2744829 17.3702222,23.7068148 C17.0438074,23.4074189 16.7553788,23.0690863 16.5114074,22.6994074 C15.946454,21.8576649 15.6852792,20.8484996 15.770963,19.8383704 C15.8789077,18.8182824 16.3217239,17.8626851 17.0302222,17.1208889 C17.3525677,16.7770133 17.7153546,16.4734224 18.1106667,16.2167407 C19.3771945,15.4256869 20.888186,15.1222354 22.3619259,15.362963 C23.8115793,15.5506162 25.1344519,16.285946 26.0591111,17.4180741 C26.792589,18.33548 27.1540174,19.4952874 27.0715556,20.666963 Z" id="Shape"></path>
                        <path d="M18.8108148,17.7933333 L18.7428148,17.7933333 C18.242372,17.8145693 17.8450229,18.2218521 17.8361481,18.7226667 L17.8361481,18.7604444 C17.8547382,19.1272874 18.0854304,19.4496451 18.426659,19.5855949 C18.7678876,19.7215447 19.1570512,19.6461454 19.4228148,19.3925926 C19.5990013,19.2273119 19.7030453,18.9993198 19.7124444,18.7579259 L19.7124444,18.7251852 C19.7128015,18.2212183 19.3144248,17.8072627 18.8108148,17.7882963 L18.8108148,17.7933333 Z" id="Shape"></path>
                        <path d="M16.4711111,14.3555556 C16.6801965,14.5519838 16.9574458,14.6594518 17.2442963,14.6552593 C17.5305804,14.6560028 17.805058,14.5412204 18.0055869,14.3368989 C18.2061159,14.1325774 18.3157362,13.8559977 18.3096296,13.5697778 C18.3080612,13.2848406 18.1918739,13.0125264 17.9872593,12.8142222 C17.7837279,12.6202372 17.512866,12.5127953 17.2317037,12.5145185 C16.9466762,12.5227079 16.6758925,12.6409501 16.4761481,12.8444444 C16.2731223,13.0443966 16.1600625,13.3182653 16.162912,13.6032079 C16.1657614,13.8881505 16.2842753,14.1597035 16.4912593,14.3555556 L16.4711111,14.3555556 Z" id="Shape"></path>
                        <path d="M23.0847407,17.7933333 L23.057037,17.7933333 C22.8176149,17.7906055 22.5864766,17.8808939 22.4122963,18.0451852 C22.239507,18.2123845 22.1376138,18.4396154 22.1277037,18.6798519 C22.1277037,18.6798519 22.1277037,18.7 22.1277037,18.7176296 C22.1265305,18.9567654 22.2166014,19.1873468 22.3795556,19.3623704 C22.5454684,19.5351713 22.7722831,19.6363795 23.0117037,19.6444444 L23.046963,19.6444444 C23.2869671,19.6462611 23.5185642,19.5561455 23.6942222,19.3925926 C23.8673729,19.2261222 23.9678345,18.9980472 23.9737778,18.7579259 L23.9737778,18.7277037 C23.9756072,18.4861968 23.8855782,18.2530218 23.7219259,18.0754074 C23.5546214,17.9016308 23.3258625,17.8003621 23.0847407,17.7933333 Z" id="Shape"></path>
                    </g>
                </g>
            </g>
        </g>
    </g>
</svg>